# xmcd CD database file
#
# Track frame offsets:
#	150
#	19817
#	33934
#	53603
#	70493
#	88930
#	106762
#	123736
#	147108
#	161422
#	181062
#	203909
#	220674
#	236735
#	251349
#	272283
#	293727
#	305652
#	319056
#
# Disc length: 4465 seconds
#
# Revision: 0
# Processed by: cddbd v1.5.2PL0 Copyright (c) Steve Scherf et al.
# Submitted via: CDex 1.51
#
DISCID=0a116f13
DTITLE=new age - Sound Of Paradise and Sound  Of Mmillenium
DYEAR=2010
DGENRE=New Age
TTITLE0=flying Squirrel cheek
TTITLE1=trades
TTITLE2=mahk jahi
TTITLE3=the ocean
TTITLE4=siochain agus ionannas
TTITLE5=sweet lullaby
TTITLE6=bulgria syee
TTITLE7=Connie's butterfly
TTITLE8=noctume
TTITLE9=love song
TTITLE10=teardrop
TTITLE11=adiemus
TTITLE12=innocent voice
TTITLE13=crystal clear
TTITLE14=Autumn breeze
TTITLE15=out of the mist
TTITLE16=season's of love
TTITLE17=pure imagination
TTITLE18=forever
EXTD=YEAR: 2010
EXTT0=
EXTT1=
EXTT2=
EXTT3=
EXTT4=
EXTT5=
EXTT6=
EXTT7=
EXTT8=
EXTT9=
EXTT10=
EXTT11=
EXTT12=
EXTT13=
EXTT14=
EXTT15=
EXTT16=
EXTT17=
EXTT18=
PLAYORDER=
